# xmcd CD database file
#
# Track frame offsets:
#	150
#	12751
#	25868
#	39164
#	61971
#	84590
#	97287
#	122869
#	142665
#	159529
#
# Disc length: 2419 seconds
#
# Revision: 0
# Processed by: cddbd v1.4PL0 Copyright (c) Steve Scherf et al.
# Submitted via: CDex 1.40Release
#
DISCID=7609710a
DTITLE=Finnigan and Wood - The One the Only
DYEAR=1900
DGENRE=Blues
TTITLE0=Don't Cry No More
TTITLE1=Lady Lady
TTITLE2=Rock and Roll Show
TTITLE3=Hard Times (Nobody Knows Better Than I)
TTITLE4=Highway
TTITLE5=Laughing Eyes
TTITLE6=Death Letter
TTITLE7=Tend To Your Own Business
TTITLE8=Down In The Flood
TTITLE9=My My My
EXTD=ID3G: 0
EXTT0=
EXTT1=
EXTT2=
EXTT3=
EXTT4=
EXTT5=
EXTT6=
EXTT7=
EXTT8=
EXTT9=
PLAYORDER=
